<?xml version="1.0" encoding="utf-8"?>
<!-- Generator: Adobe Illustrator 16.0.0, SVG Export Plug-In . SVG Version: 6.00 Build 0)  -->
<!DOCTYPE svg PUBLIC "-//W3C//DTD SVG 1.1//EN" "http://www.w3.org/Graphics/SVG/1.1/DTD/svg11.dtd">
<svg version="1.1" id="Layer_1" xmlns="http://www.w3.org/2000/svg" xmlns:xlink="http://www.w3.org/1999/xlink" x="0px" y="0px"
	 width="200px" height="200px" viewBox="0 0 720 720" enable-background="new 0 0 720 720" xml:space="preserve">
<g>
	<defs>
		<rect id="SVGID_1_" width="720" height="720"/>
	</defs>
	<clipPath id="SVGID_2_">
		<use xlink:href="#SVGID_1_"  overflow="visible"/>
	</clipPath>
	<path clip-path="url(#SVGID_2_)" fill="#228FE3" d="M420,229.38V86.891c0-15.704-6.675-30.56-18.188-41.831
		c-11.524-11.284-26.827-17.497-42.784-17.497c-15.701,0-30.272,6.134-41.176,17.275C306.934,55.992,301,70.927,301,86.891v165.576
		l23-4.617V119.2c0-22.372,4.22-43.794,11.228-58.773c0.925-1.98,3.379-2.834,5.36-1.906c1.978,0.924,3.225,3.278,2.301,5.257
		C336.354,77.745,333,97.946,333,119.2v127.111l50-10.004V119.2c0-21.61-3.404-41.779-9.979-55.334
		c-0.951-1.965,0.051-4.331,2.017-5.285c1.962-0.95,4.603-0.132,5.556,1.834C387.775,75.223,392,96.101,392,119.2v115.568
		L420,229.38z"/>
	<polygon clip-path="url(#SVGID_2_)" fill="#228FE3" points="301,532 324,532 324,483.259 301,487.876 	"/>
	<polygon clip-path="url(#SVGID_2_)" fill="#228FE3" points="333,532 383,532 383,471.716 333,481.72 	"/>
	<polygon clip-path="url(#SVGID_2_)" fill="#228FE3" points="392,532 420,532 420,464.789 392,470.177 	"/>
	<path clip-path="url(#SVGID_2_)" fill="#228FE3" d="M252.763,338.138l10.168-1.977c0.629-0.122,0.98-0.552,0.8-1.483l-5.433-27.953
		c-0.069-0.351-0.197-0.446-0.511-0.385l-0.21,0.04c-0.314,0.062-0.501,0.22-0.538,0.591l-5.154,30.01
		C251.75,337.973,252.134,338.261,252.763,338.138"/>
	<path clip-path="url(#SVGID_2_)" fill="#228FE3" d="M388.226,294.039l9.434-1.834c4.929-0.958,8.18-6.062,7.184-11.186
		c-0.747-3.844-3.014-6.546-7.206-5.731l-9.435,1.833c-0.63,0.123-1.062,0.691-1.031,1.409l0.096,14.488
		C387.298,293.736,387.597,294.16,388.226,294.039"/>
	<path clip-path="url(#SVGID_2_)" fill="#228FE3" d="M454.857,316.139c6.812-1.323,9.564-6.208,10.139-11.64
		c1.034-10.352,0.91-23.867-0.152-33.814c-0.473-5.226-3.806-8.93-10.199-7.687c-6.395,1.244-9.563,6.21-10.139,11.64
		c-1.033,10.355-0.909,23.868,0.153,33.814C445.133,313.68,448.463,317.383,454.857,316.139"/>
	<path clip-path="url(#SVGID_2_)" fill="#228FE3" d="M439.77,385.436l11.428-2.222c4.821-0.937,7.174-5.626,6.179-10.75
		c-0.635-3.261-3.124-5.436-6.269-4.825l-11.428,2.222c-0.629,0.121-1.062,0.69-1.03,1.41l0.056,13.163
		C438.736,385.152,439.141,385.558,439.77,385.436"/>
	<path clip-path="url(#SVGID_2_)" fill="#228FE3" d="M451.221,400.13l-11.426,2.223c-0.628,0.122-1.062,0.689-1.031,1.409
		l0.03,15.829c0.032,0.718,0.438,1.124,1.065,1.002l11.427-2.223c4.717-0.916,7.816-6.233,6.662-12.174
		C457.202,402.354,454.994,399.397,451.221,400.13"/>
	<path clip-path="url(#SVGID_2_)" fill="#228FE3" d="M400.026,25c0.001,0,0.003,0.002,0.005,0.003
		c0.532,0.347,1.06,0.704,1.582,1.065c0.271,0.184,0.537,0.372,0.804,0.56c0.869,0.614,1.725,1.245,2.566,1.892
		c0.252,0.195,0.507,0.387,0.757,0.585c0.487,0.385,0.969,0.774,1.445,1.171c0.27,0.222,0.531,0.45,0.796,0.675
		c0.762,0.649,1.507,1.31,2.242,1.988c0.285,0.263,0.567,0.527,0.849,0.794c0.424,0.404,0.846,0.809,1.26,1.221
		c0.502,0.499,0.994,1.008,1.481,1.521c0.428,0.451,0.848,0.908,1.264,1.37c0.312,0.345,0.621,0.694,0.929,1.047
		c0.444,0.511,0.883,1.026,1.313,1.549c0.427,0.516,0.848,1.037,1.259,1.565c0.308,0.392,0.607,0.787,0.905,1.185
		c0.361,0.484,0.716,0.971,1.066,1.464c0.361,0.507,0.719,1.019,1.067,1.537c0.367,0.543,0.729,1.09,1.081,1.642
		c0.236,0.371,0.47,0.741,0.699,1.114c0.472,0.769,0.934,1.546,1.377,2.333c0.176,0.312,0.343,0.627,0.513,0.942
		c0.344,0.629,0.679,1.264,1.003,1.903c0.16,0.317,0.323,0.631,0.481,0.951c0.417,0.855,0.819,1.721,1.206,2.593
		c0.135,0.308,0.266,0.617,0.398,0.926c0.327,0.771,0.643,1.549,0.945,2.333c0.08,0.207,0.166,0.412,0.244,0.621
		c0.354,0.945,0.685,1.9,0.999,2.863c0.096,0.289,0.188,0.578,0.279,0.869c0.309,0.985,0.604,1.974,0.872,2.975
		c0.04,0.152,0.075,0.306,0.114,0.46c0.24,0.92,0.46,1.847,0.663,2.781c0.056,0.25,0.111,0.5,0.163,0.75
		c0.216,1.036,0.408,2.079,0.578,3.13c0.035,0.218,0.064,0.439,0.099,0.657c0.146,0.962,0.273,1.929,0.381,2.902
		c0.021,0.176,0.043,0.35,0.061,0.528c0.113,1.086,0.196,2.178,0.259,3.275c0.015,0.25-0.055,0.5-0.043,0.75
		c0.054,1.128,0.01,2.26,0.01,3.401v139.604l24.421-4.735c1.069-0.211,2.149,0.491,2.358,1.563c0.207,1.073-0.472,2.111-1.545,2.319
		L261.487,264.12c-0.125,0.024-0.248,0.036-0.373,0.036c-0.928,0-1.754-0.656-1.937-1.6c-0.209-1.072,0.573-2.11,1.645-2.319
		L286,255.354V86.891c0-1.142-0.046-2.276,0.004-3.405c0.01-0.245-0.019-0.49-0.006-0.733c0.058-1.098,0.117-2.191,0.221-3.277
		c0.018-0.18,0.03-0.359,0.049-0.539c0.102-0.984,0.217-1.96,0.355-2.93c0.029-0.2,0.051-0.399,0.081-0.599
		c0.161-1.058,0.342-2.107,0.544-3.15c0.048-0.244,0.097-0.486,0.148-0.728c0.203-0.995,0.42-1.981,0.662-2.959
		c0.02-0.085,0.038-0.173,0.06-0.259c0.256-1.025,0.541-2.038,0.839-3.045c0.078-0.262,0.155-0.522,0.236-0.782
		c0.302-0.982,0.618-1.955,0.958-2.918c0.069-0.197,0.145-0.391,0.217-0.587c0.3-0.827,0.614-1.647,0.942-2.459
		c0.1-0.248,0.197-0.497,0.299-0.743c0.379-0.911,0.777-1.812,1.19-2.704c0.126-0.272,0.257-0.543,0.386-0.814
		c0.364-0.76,0.739-1.514,1.126-2.26c0.102-0.193,0.197-0.388,0.3-0.581c0.451-0.849,0.926-1.686,1.409-2.515
		c0.172-0.296,0.347-0.591,0.523-0.884c0.486-0.808,0.982-1.61,1.498-2.397c0.158-0.241,0.322-0.474,0.482-0.714
		c0.414-0.616,0.837-1.225,1.268-1.828c0.209-0.29,0.416-0.582,0.628-0.869c0.539-0.728,1.089-1.447,1.653-2.154
		c0.234-0.294,0.474-0.582,0.712-0.871c0.436-0.53,0.878-1.052,1.327-1.568c0.244-0.281,0.486-0.563,0.735-0.84
		c0.571-0.636,1.155-1.259,1.748-1.875c0.288-0.299,0.579-0.595,0.872-0.89c0.525-0.526,1.057-1.045,1.598-1.554
		c0.36-0.341,0.725-0.676,1.092-1.008c0.473-0.428,0.951-0.852,1.436-1.268c0.322-0.279,0.645-0.556,0.973-0.828
		c0.661-0.547,1.331-1.085,2.012-1.611c0.333-0.257,0.672-0.505,1.01-0.757c0.49-0.365,0.984-0.722,1.484-1.075
		c0.329-0.231,0.654-0.467,0.988-0.694C152.182,45.863,23.81,187.342,23.81,358.809C23.81,544.48,174.329,695,360.001,695
		c185.672,0,336.189-150.52,336.189-336.191C696.19,186.684,566.828,44.791,400.026,25 M429.725,277.512
		c1.476-14.792,6.423-27.961,22.777-31.141c14.778-2.872,25.662,7.22,27.121,21.442c1.063,9.947,1.188,23.46,0.154,33.814
		c-1.476,14.79-6.424,27.961-22.776,31.14c-15.725,3.055-25.664-7.22-27.121-21.441C428.814,301.38,428.691,287.865,429.725,277.512
		 M374.55,262.854l22.013-4.279c10.59-2.057,20.613,5.299,22.718,16.131c3.668,18.869-7.338,31.645-21.489,34.396l-9.435,1.834
		c-0.63,0.123-1.169,0.71-1.137,1.429l0.104,30.198c0.038,1.322-0.908,2.594-2.063,2.819l-10.483,2.037
		c-1.152,0.225-2.09-0.681-2.131-2.004l-0.16-79.743C372.445,264.351,373.396,263.079,374.55,262.854 M362.607,367.921l10.587-2.06
		c1.154-0.224,2.091,0.682,2.131,2.004l0.156,56.779c0.054,5.308,3.805,8.931,9.99,7.728c7.022-1.365,10.189-6.332,10.138-11.642
		l-0.157-56.777c-0.038-1.321,0.91-2.595,2.063-2.819l10.587-2.057c1.154-0.224,2.091,0.681,2.131,2.003l0.157,56.778
		c0.016,14.622-6.737,28.022-22.776,31.141c-14.257,2.771-26.898-6.858-26.912-21.481l-0.157-56.779
		C360.504,369.416,361.453,368.145,362.607,367.921 M296.768,277.973l14.466-2.812c1.152-0.223,1.896,0.236,2.168,1.633
		l11.906,50.627c0.068,0.35,0.197,0.446,0.511,0.386l0.21-0.041c0.314-0.062,0.502-0.219,0.538-0.588l10.945-55.069
		c0.358-1.521,1.084-2.266,2.236-2.49l15.41-2.996c1.152-0.223,2.09,0.681,2.13,2.004l0.161,79.743
		c0.038,1.322-0.908,2.595-2.064,2.819l-8.804,1.713c-1.153,0.222-2.091-0.682-2.13-2.005l-0.149-45.539
		c-0.032-0.72-0.706-0.83-0.885-0.071l-10.534,48.221c-0.359,1.522-1.084,2.267-2.236,2.489l-8.701,1.693
		c-1.154,0.222-1.792-0.256-2.167-1.635l-10.641-44.104c-0.136-0.699-1.035-0.283-1.004,0.437l0.15,45.539
		c0.039,1.321-0.911,2.595-2.062,2.817l-9.226,1.794c-1.153,0.225-1.987-0.702-2.025-2.023l-0.266-79.723
		C294.664,279.469,295.614,278.197,296.768,277.973 M353.097,439.874l-0.045,12.095c0.041,1.324-0.908,2.595-2.062,2.819
		l-35.641,6.928c-1.154,0.225-1.987-0.7-2.027-2.024l-0.264-79.723c-0.04-1.322,0.909-2.594,2.062-2.817l10.483-2.038
		c1.153-0.225,2.091,0.682,2.13,2.003l0.154,64.033c0.03,0.719,0.436,1.124,1.065,1.002l22.015-4.28
		C352.12,437.647,353.057,438.552,353.097,439.874 M300.789,404.716c0.138,2.39-1.103,3.84-3.2,4.248l-8.49,1.649
		c-1.992,0.388-2.976-0.75-3.082-2.423c-0.473-5.226-2.86-9.113-10.198-7.687c-6.395,1.242-9.564,6.211-10.14,11.641
		c-1.034,10.354-0.909,23.867,0.153,33.813c0.473,5.228,3.805,8.931,10.199,7.688c6.814-1.323,9.564-6.21,10.139-11.641
		c0.102-1.712,1.112-3.237,3.102-3.625l8.492-1.649c2.096-0.408,3.268,0.572,3.196,3.005c-0.406,14.702-7.586,27.581-22.786,30.536
		c-15.723,3.057-25.662-7.221-27.121-21.44c-1.065-9.946-1.189-23.458-0.154-33.814c1.474-14.791,6.421-27.96,22.775-31.14
		C288.246,381.045,300.131,390.7,300.789,404.716 M264.167,284.311c0.943-0.184,1.812,0.371,2.016,1.42l18.831,76.718
		c0.202,1.049-0.387,2.493-2.066,2.819l-10.375,2.018c-0.946,0.184-1.815-0.372-2.019-1.421l-2.751-11.916
		c-0.182-0.931-0.653-1.686-1.597-1.503l-16.458,3.2c-0.945,0.184-1.333,0.985-1.548,2.113l-2.909,13.018
		c-0.216,1.128-1.024,2.011-1.968,2.195l-11.531,2.24c-1.677,0.326-2.344-0.873-2.13-2.003l18.491-83.973
		c0.215-1.131,1.022-2.013,1.967-2.196L264.167,284.311z M459.175,457.021L434,461.904V547h-71v9.568
		c0,8.15-5.595,13.844-12.873,13.844c-0.868,0-1.815-0.184-2.364-0.457l-0.63-0.027L325,565.191v0.004
		c0-0.121-0.82-0.184-1.464-0.184c-4.634,0-8.218,3.788-8.218,8.443c0,4.678,3.864,8.482,8.498,8.482
		c0.371,0,0.782-0.035,1.14-0.064c0.413-0.036,0.894-0.074,1.381-0.087l64.78-9.307l0.221-0.049
		c1.042-0.238,2.345-0.536,3.762-0.536c10.225,0,18.541,8.316,18.541,18.54c0,10.223-8.314,18.54-18.538,18.54
		c-0.089,0-0.177-0.001-0.265-0.002l-0.104,0.009l-0.389-0.018l-73.32-5.34c-0.572-0.062-1.071-0.088-1.565-0.088
		c-7.499,0-13.598,6.099-13.598,13.596s6.098,13.597,13.594,13.597c1.161,0,2.31-0.146,3.421-0.432l0.765-0.222l0.014,0.043
		l78.732-17.805c1.92-0.557,3.864-0.825,5.924-0.825c11.782,0,21.367,9.666,21.367,21.546c0,10.081-6.688,18.85-15.914,21.364
		l-2.376,0.905c-16.813,2.903-34.103,4.696-51.388,4.696h-0.249c-80.198,0-155.59-31.625-212.305-88.341
		C90.673,514.885,59.407,439.25,59.407,358.957c0-61.011,18.176-119.825,52.565-169.941
		c33.582-48.942,80.297-86.599,135.097-108.828c2.027-0.82,4.332,0.135,5.153,2.16c0.82,2.025-0.155,4.322-2.179,5.142
		c-53.358,21.645-98.847,58.273-131.549,105.931c-33.48,48.793-51.177,105.984-51.177,165.391
		c0,78.179,30.444,151.677,85.725,206.958c55.249,55.25,128.703,85.688,206.833,85.724c16.092-0.008,32.182-1.317,47.866-3.896
		l2.445-0.519c6.495-0.943,11.582-7.113,11.582-14.045c0-7.519-6.305-13.638-13.726-13.638c-1.321,0-3.042,0.174-4.042,0.529v0.005
		l-79.268,18.038c-1.74,0.445-3.499,0.67-5.311,0.67c-11.857,0-21.488-9.647-21.488-21.507c0-11.858,9.657-21.506,21.517-21.506
		c0.777,0,1.566,0.043,2.336,0.125l73.018,5.31l0.296,0.004c5.862,0,10.632-4.769,10.632-10.63s-4.769-10.629-10.631-10.629
		c-0.524,0-1.273,0.17-1.996,0.335l-67.437,10.118c-0.329,0,0.34-0.029,0,0c-0.521,0.044-1.11-0.159-1.76-0.159
		c-8.996,0-16.315-7.479-16.315-16.519c0-9.019,7.131-16.417,16.127-16.417c1.188,0,2.279,0.058,3.279,0.292v-0.006l22.689,4.926
		c0.12,0.025,0.298,0.054,0.407,0.085c3.558-0.449,3.904-4.577,3.904-5.893V547h-68v-56.239l-24.422,4.736
		c-0.127,0.025-0.294,0.037-0.419,0.037c-0.928,0-1.775-0.655-1.958-1.601c-0.209-1.07,0.481-2.109,1.553-2.317l197.752-38.478
		c1.07-0.213,2.066,0.492,2.275,1.562C460.989,455.773,460.248,456.812,459.175,457.021 M211.003,376.835
		c0.039,1.323-0.909,2.596-2.063,2.82l-10.483,2.037c-1.152,0.224-2.09-0.682-2.129-2.004l-0.154-64.033
		c-0.031-0.718-0.435-1.124-1.065-1.001l-13.628,2.649c-1.152,0.225-2.09-0.682-2.129-2.003l0.041-12.096
		c-0.039-1.322,0.912-2.593,2.064-2.818l42.98-8.355c1.153-0.223,2.09,0.682,2.13,2.004l-0.042,12.095
		c0.04,1.321-0.91,2.595-2.063,2.817l-12.581,2.448c-0.628,0.122-1.061,0.689-1.031,1.408L211.003,376.835z M451.31,435.288
		l-24.739,4.809c-1.153,0.224-2.092-0.681-2.131-2.005l-0.162-79.742c-0.038-1.322,0.911-2.594,2.065-2.818l24.74-4.809
		c10.167-1.977,18.184,4.562,20.289,15.396c1.698,8.735-0.831,15.874-4.853,21.49c-0.702,0.862-0.648,1.699-0.012,2.179
		c2.7,2.135,4.945,6.411,5.874,11.188C475.483,416.93,467.873,432.069,451.31,435.288 M472.636,637.585
		c-0.486,0.198-0.988,0.29-1.482,0.29c-1.563,0-3.046-0.933-3.668-2.473c-0.818-2.025,0.158-4.332,2.184-5.149
		c53.434-21.609,98.992-58.237,131.752-105.926c33.534-48.82,51.262-106.057,51.262-165.519c0-59.463-17.728-116.699-51.265-165.522
		c-32.761-47.687-78.319-84.316-131.754-105.924c-2.025-0.818-3.003-3.125-2.185-5.15c0.819-2.024,3.123-3.001,5.15-2.183
		c54.877,22.192,101.667,59.806,135.308,108.779c34.448,50.145,52.656,108.93,52.656,170c0,61.069-18.207,119.854-52.653,169.998
		C574.3,577.779,527.513,615.393,472.636,637.585 M525.953,235.842c-0.039-1.322,0.91-2.595,2.063-2.819l10.483-2.038
		c1.153-0.223,2.09,0.682,2.129,2.003l0.162,79.745c0.039,1.32-0.91,2.593-2.063,2.818l-11.32,2.201
		c-1.783,0.346-2.512-0.6-2.797-1.512l-15.495-39.414c-0.239-0.679-0.929-0.303-0.898,0.416l0.077,41.806
		c0.038,1.323-0.91,2.595-2.063,2.819l-10.483,2.038c-1.152,0.224-1.985-0.702-2.024-2.024l-0.266-79.724
		c-0.041-1.322,0.907-2.593,2.062-2.817l11.427-2.221c1.57-0.305,2.3,0.64,2.608,1.667l15.521,42.915
		c0.241,0.678,1.034,0.283,1.002-0.436L525.953,235.842z"/>
</g>
</svg>
